<mxfile host="app.diagrams.net" modified="2022-01-22T15:15:35.510Z" agent="5.0 (Windows NT 10.0; Win64; x64) AppleWebKit/537.36 (KHTML, like Gecko) Chrome/97.0.4692.99 Safari/537.36" etag="HPxjFEaBAM6SfXYDnya5" version="16.2.4" type="github">
  <diagram id="weW6Oltp8gBfj2a2s941" name="Page-1">
    <mxGraphModel dx="868" dy="2688" grid="1" gridSize="10" guides="1" tooltips="1" connect="1" arrows="1" fold="1" page="1" pageScale="1" pageWidth="850" pageHeight="1100" math="0" shadow="0">
      <root>
        <mxCell id="0" />
        <mxCell id="1" parent="0" />
        <mxCell id="1RG-dKL26PaQn5k93j43-6" value="Book" style="swimlane;fontStyle=1;align=center;verticalAlign=top;childLayout=stackLayout;horizontal=1;startSize=26;horizontalStack=0;resizeParent=1;resizeParentMax=0;resizeLast=0;collapsible=1;marginBottom=0;" parent="1" vertex="1">
          <mxGeometry x="40" y="-1920" width="240" height="300" as="geometry" />
        </mxCell>
        <mxCell id="1RG-dKL26PaQn5k93j43-7" value="-ten: String&#xa;-ID: String&#xa;-tacGia: String&#xa;-theLoai: String&#xa;-NXB: String" style="text;strokeColor=none;fillColor=none;align=left;verticalAlign=top;spacingLeft=4;spacingRight=4;overflow=hidden;rotatable=0;points=[[0,0.5],[1,0.5]];portConstraint=eastwest;" parent="1RG-dKL26PaQn5k93j43-6" vertex="1">
          <mxGeometry y="26" width="240" height="94" as="geometry" />
        </mxCell>
        <mxCell id="1RG-dKL26PaQn5k93j43-8" value="" style="line;strokeWidth=1;fillColor=none;align=left;verticalAlign=middle;spacingTop=-1;spacingLeft=3;spacingRight=3;rotatable=0;labelPosition=right;points=[];portConstraint=eastwest;" parent="1RG-dKL26PaQn5k93j43-6" vertex="1">
          <mxGeometry y="120" width="240" height="8" as="geometry" />
        </mxCell>
        <mxCell id="1RG-dKL26PaQn5k93j43-9" value="+getTen() : String&#xa;+setTen(ten) : void&#xa;+getID() : String&#xa;+setID(ID) : void&#xa;+getTacGia() : String&#xa;+setTacGia(tacGia) : void&#xa;+getTheLoai() : String&#xa;+setTheLoai(theLoai) : void&#xa;+getNXB() : String&#xa;+setNXB(NXB) : void&#xa;+display(): void" style="text;strokeColor=none;fillColor=none;align=left;verticalAlign=top;spacingLeft=4;spacingRight=4;overflow=hidden;rotatable=0;points=[[0,0.5],[1,0.5]];portConstraint=eastwest;" parent="1RG-dKL26PaQn5k93j43-6" vertex="1">
          <mxGeometry y="128" width="240" height="172" as="geometry" />
        </mxCell>
        <mxCell id="1RG-dKL26PaQn5k93j43-11" value="Customer" style="swimlane;fontStyle=1;align=center;verticalAlign=top;childLayout=stackLayout;horizontal=1;startSize=20;horizontalStack=0;resizeParent=1;resizeParentMax=0;resizeLast=0;collapsible=1;marginBottom=0;" parent="1" vertex="1">
          <mxGeometry x="560" y="-1920" width="240" height="300" as="geometry" />
        </mxCell>
        <mxCell id="1RG-dKL26PaQn5k93j43-12" value="-ten: String&#xa;-ID: String&#xa;-tuoi: int&#xa;-soDT: String&#xa;-diaChi: String" style="text;strokeColor=none;fillColor=none;align=left;verticalAlign=top;spacingLeft=4;spacingRight=4;overflow=hidden;rotatable=0;points=[[0,0.5],[1,0.5]];portConstraint=eastwest;" parent="1RG-dKL26PaQn5k93j43-11" vertex="1">
          <mxGeometry y="20" width="240" height="94" as="geometry" />
        </mxCell>
        <mxCell id="1RG-dKL26PaQn5k93j43-13" value="" style="line;strokeWidth=1;fillColor=none;align=left;verticalAlign=middle;spacingTop=-1;spacingLeft=3;spacingRight=3;rotatable=0;labelPosition=right;points=[];portConstraint=eastwest;" parent="1RG-dKL26PaQn5k93j43-11" vertex="1">
          <mxGeometry y="114" width="240" height="8" as="geometry" />
        </mxCell>
        <mxCell id="1RG-dKL26PaQn5k93j43-14" value="+getTen() : String&#xa;+setTen(ten) : void&#xa;+getID() : String&#xa;+setID(ID) : void&#xa;+getTuoi() : String&#xa;+setTuoi(Tuoi) : void&#xa;+getSoDT() : String&#xa;+setSoDT(soDT) : void&#xa;+getDiaChi() : String&#xa;+setDiaChi(diaChi) : void&#xa;+display(): void" style="text;strokeColor=none;fillColor=none;align=left;verticalAlign=top;spacingLeft=4;spacingRight=4;overflow=hidden;rotatable=0;points=[[0,0.5],[1,0.5]];portConstraint=eastwest;" parent="1RG-dKL26PaQn5k93j43-11" vertex="1">
          <mxGeometry y="122" width="240" height="178" as="geometry" />
        </mxCell>
        <mxCell id="1RG-dKL26PaQn5k93j43-16" value="QuanLiDocGia" style="swimlane;fontStyle=1;align=center;verticalAlign=top;childLayout=stackLayout;horizontal=1;startSize=26;horizontalStack=0;resizeParent=1;resizeParentMax=0;resizeLast=0;collapsible=1;marginBottom=0;" parent="1" vertex="1">
          <mxGeometry x="535" y="-1560" width="290" height="240" as="geometry" />
        </mxCell>
        <mxCell id="1RG-dKL26PaQn5k93j43-17" value="dsDocGia : Arraylist &lt;Customer&gt; &#xa;" style="text;strokeColor=none;fillColor=none;align=left;verticalAlign=top;spacingLeft=4;spacingRight=4;overflow=hidden;rotatable=0;points=[[0,0.5],[1,0.5]];portConstraint=eastwest;" parent="1RG-dKL26PaQn5k93j43-16" vertex="1">
          <mxGeometry y="26" width="290" height="64" as="geometry" />
        </mxCell>
        <mxCell id="1RG-dKL26PaQn5k93j43-18" value="" style="line;strokeWidth=1;fillColor=none;align=left;verticalAlign=middle;spacingTop=-1;spacingLeft=3;spacingRight=3;rotatable=0;labelPosition=right;points=[];portConstraint=eastwest;" parent="1RG-dKL26PaQn5k93j43-16" vertex="1">
          <mxGeometry y="90" width="290" height="8" as="geometry" />
        </mxCell>
        <mxCell id="1RG-dKL26PaQn5k93j43-19" value="+quanLi_DocGia(): void&#xa;+addCustomer() : void&#xa;+findNameCustomer(customerName) : void&#xa;+findIdCustomer(customerID) : void&#xa;+findNumberPhoneCustomer(customerSDT) : void&#xa;+display() : void&#xa;" style="text;strokeColor=none;fillColor=none;align=left;verticalAlign=top;spacingLeft=4;spacingRight=4;overflow=hidden;rotatable=0;points=[[0,0.5],[1,0.5]];portConstraint=eastwest;" parent="1RG-dKL26PaQn5k93j43-16" vertex="1">
          <mxGeometry y="98" width="290" height="142" as="geometry" />
        </mxCell>
        <mxCell id="1RG-dKL26PaQn5k93j43-20" style="edgeStyle=orthogonalEdgeStyle;rounded=0;orthogonalLoop=1;jettySize=auto;html=1;entryX=0.5;entryY=0;entryDx=0;entryDy=0;" parent="1" source="1RG-dKL26PaQn5k93j43-21" target="1RG-dKL26PaQn5k93j43-55" edge="1">
          <mxGeometry relative="1" as="geometry">
            <mxPoint x="415" y="-1110" as="targetPoint" />
            <Array as="points">
              <mxPoint x="160" y="-1280" />
              <mxPoint x="405" y="-1280" />
            </Array>
          </mxGeometry>
        </mxCell>
        <mxCell id="1RG-dKL26PaQn5k93j43-21" value="QuanLiSach" style="swimlane;fontStyle=1;align=center;verticalAlign=top;childLayout=stackLayout;horizontal=1;startSize=26;horizontalStack=0;resizeParent=1;resizeParentMax=0;resizeLast=0;collapsible=1;marginBottom=0;" parent="1" vertex="1">
          <mxGeometry x="40" y="-1560" width="240" height="240" as="geometry" />
        </mxCell>
        <mxCell id="1RG-dKL26PaQn5k93j43-22" value="dsSach : Arraylist &lt;Book&gt; &#xa;" style="text;strokeColor=none;fillColor=none;align=left;verticalAlign=top;spacingLeft=4;spacingRight=4;overflow=hidden;rotatable=0;points=[[0,0.5],[1,0.5]];portConstraint=eastwest;" parent="1RG-dKL26PaQn5k93j43-21" vertex="1">
          <mxGeometry y="26" width="240" height="64" as="geometry" />
        </mxCell>
        <mxCell id="1RG-dKL26PaQn5k93j43-23" value="" style="line;strokeWidth=1;fillColor=none;align=left;verticalAlign=middle;spacingTop=-1;spacingLeft=3;spacingRight=3;rotatable=0;labelPosition=right;points=[];portConstraint=eastwest;" parent="1RG-dKL26PaQn5k93j43-21" vertex="1">
          <mxGeometry y="90" width="240" height="8" as="geometry" />
        </mxCell>
        <mxCell id="1RG-dKL26PaQn5k93j43-24" value="+quanLy_Sach(): void&#xa;+addBook() : void&#xa;+findIdBook(bookId):void&#xa;+findNameBook(bookName) : void&#xa;+findAuthor(bookAuthor) : void&#xa;+findKindBook(bookKind) : void&#xa;+findNXB(bookNXB): String&#xa;+display() : void&#xa;" style="text;strokeColor=none;fillColor=none;align=left;verticalAlign=top;spacingLeft=4;spacingRight=4;overflow=hidden;rotatable=0;points=[[0,0.5],[1,0.5]];portConstraint=eastwest;" parent="1RG-dKL26PaQn5k93j43-21" vertex="1">
          <mxGeometry y="98" width="240" height="142" as="geometry" />
        </mxCell>
        <mxCell id="1RG-dKL26PaQn5k93j43-29" value="" style="endArrow=classic;html=1;rounded=0;exitX=0.492;exitY=1.028;exitDx=0;exitDy=0;exitPerimeter=0;entryX=0.5;entryY=0;entryDx=0;entryDy=0;" parent="1" source="1RG-dKL26PaQn5k93j43-14" target="1RG-dKL26PaQn5k93j43-16" edge="1">
          <mxGeometry width="50" height="50" relative="1" as="geometry">
            <mxPoint x="400" y="-690" as="sourcePoint" />
            <mxPoint x="640" y="-750" as="targetPoint" />
          </mxGeometry>
        </mxCell>
        <mxCell id="1RG-dKL26PaQn5k93j43-34" value="Main" style="swimlane;fontStyle=0;childLayout=stackLayout;horizontal=1;startSize=30;horizontalStack=0;resizeParent=1;resizeParentMax=0;resizeLast=0;collapsible=1;marginBottom=0;" parent="1" vertex="1">
          <mxGeometry x="250" y="-1020" width="310" height="60" as="geometry" />
        </mxCell>
        <mxCell id="1RG-dKL26PaQn5k93j43-36" value="+Gọi lại Manager" style="text;strokeColor=none;fillColor=none;align=left;verticalAlign=middle;spacingLeft=4;spacingRight=4;overflow=hidden;points=[[0,0.5],[1,0.5]];portConstraint=eastwest;rotatable=0;" parent="1RG-dKL26PaQn5k93j43-34" vertex="1">
          <mxGeometry y="30" width="310" height="30" as="geometry" />
        </mxCell>
        <mxCell id="1RG-dKL26PaQn5k93j43-55" value="Manager" style="swimlane;fontStyle=1;align=center;verticalAlign=top;childLayout=stackLayout;horizontal=1;startSize=26;horizontalStack=0;resizeParent=1;resizeParentMax=0;resizeLast=0;collapsible=1;marginBottom=0;" parent="1" vertex="1">
          <mxGeometry x="250" y="-1250" width="310" height="180" as="geometry" />
        </mxCell>
        <mxCell id="1RG-dKL26PaQn5k93j43-56" value="ds TheMuon: Arraylist&lt;String&gt;&#xa;+Gọi đối tượng &#xa;+thoat() : void&#xa;" style="text;strokeColor=none;fillColor=none;align=left;verticalAlign=top;spacingLeft=4;spacingRight=4;overflow=hidden;rotatable=0;points=[[0,0.5],[1,0.5]];portConstraint=eastwest;" parent="1RG-dKL26PaQn5k93j43-55" vertex="1">
          <mxGeometry y="26" width="310" height="54" as="geometry" />
        </mxCell>
        <mxCell id="1RG-dKL26PaQn5k93j43-57" value="" style="line;strokeWidth=1;fillColor=none;align=left;verticalAlign=middle;spacingTop=-1;spacingLeft=3;spacingRight=3;rotatable=0;labelPosition=right;points=[];portConstraint=eastwest;" parent="1RG-dKL26PaQn5k93j43-55" vertex="1">
          <mxGeometry y="80" width="310" height="8" as="geometry" />
        </mxCell>
        <mxCell id="1RG-dKL26PaQn5k93j43-58" value="+Thiết kê menu&#xa;+Muon_Sach(): void&#xa;+addCard(): void&#xa;+deleteCard(): void" style="text;strokeColor=none;fillColor=none;align=left;verticalAlign=top;spacingLeft=4;spacingRight=4;overflow=hidden;rotatable=0;points=[[0,0.5],[1,0.5]];portConstraint=eastwest;" parent="1RG-dKL26PaQn5k93j43-55" vertex="1">
          <mxGeometry y="88" width="310" height="92" as="geometry" />
        </mxCell>
        <mxCell id="1RG-dKL26PaQn5k93j43-60" value="" style="endArrow=classic;html=1;rounded=0;entryX=0.5;entryY=0;entryDx=0;entryDy=0;" parent="1" source="1RG-dKL26PaQn5k93j43-58" target="1RG-dKL26PaQn5k93j43-34" edge="1">
          <mxGeometry width="50" height="50" relative="1" as="geometry">
            <mxPoint x="390" y="-790" as="sourcePoint" />
            <mxPoint x="430" y="-740" as="targetPoint" />
          </mxGeometry>
        </mxCell>
        <mxCell id="1RG-dKL26PaQn5k93j43-61" value="" style="endArrow=classic;html=1;rounded=0;exitX=0.5;exitY=1.017;exitDx=0;exitDy=0;exitPerimeter=0;entryX=0.5;entryY=0;entryDx=0;entryDy=0;" parent="1" source="1RG-dKL26PaQn5k93j43-9" target="1RG-dKL26PaQn5k93j43-21" edge="1">
          <mxGeometry width="50" height="50" relative="1" as="geometry">
            <mxPoint x="440" y="-1560" as="sourcePoint" />
            <mxPoint x="490" y="-1610" as="targetPoint" />
          </mxGeometry>
        </mxCell>
        <mxCell id="Eohblb_9fFGYf2aV38Db-2" value="" style="endArrow=classic;html=1;rounded=0;exitX=0.493;exitY=1.007;exitDx=0;exitDy=0;exitPerimeter=0;entryX=0.5;entryY=0;entryDx=0;entryDy=0;" edge="1" parent="1" source="1RG-dKL26PaQn5k93j43-19" target="1RG-dKL26PaQn5k93j43-55">
          <mxGeometry width="50" height="50" relative="1" as="geometry">
            <mxPoint x="400" y="-1140" as="sourcePoint" />
            <mxPoint x="440" y="-1319" as="targetPoint" />
            <Array as="points">
              <mxPoint x="678" y="-1280" />
              <mxPoint x="405" y="-1280" />
            </Array>
          </mxGeometry>
        </mxCell>
      </root>
    </mxGraphModel>
  </diagram>
</mxfile>
